<?xml version="1.0" standalone="no"?>
<!DOCTYPE svg PUBLIC "-//W3C//DTD SVG 20010904//EN"
 "http://www.w3.org/TR/2001/REC-SVG-20010904/DTD/svg10.dtd">
<svg version="1.0" xmlns="http://www.w3.org/2000/svg"
 width="512.000000pt" height="512.000000pt" viewBox="0 0 512.000000 512.000000"
 preserveAspectRatio="xMidYMid meet">
<metadata>
Created by potrace 1.14, written by Peter Selinger 2001-2017
</metadata>
<g transform="translate(0.000000,512.000000) scale(0.100000,-0.100000)"
fill="#000000" stroke="none">
<path d="M83 5102 c-17 -9 -42 -30 -55 -47 l-23 -30 0 -1500 0 -1500 24 -34
c38 -53 71 -61 241 -61 l150 0 0 -349 c0 -345 0 -348 23 -382 44 -66 129 -90
196 -54 13 7 197 185 408 396 l384 384 409 1 409 0 3 -517 3 -518 30 -31 c17
-18 39 -37 50 -43 14 -8 205 -12 683 -12 l663 -1 392 -392 c216 -215 405 -396
420 -402 68 -25 141 -2 181 56 l26 39 0 350 0 350 143 -2 c176 -3 215 8 252
71 l25 43 0 1485 0 1485 -22 33 c-13 18 -36 43 -51 54 -28 21 -30 21 -1090 22
-584 1 -1068 2 -1074 3 -10 1 -13 119 -15 515 -3 502 -3 515 -24 543 -11 15
-36 36 -55 45 -32 17 -117 18 -1354 18 -1225 -1 -1322 -2 -1352 -18z"/>
</g>
</svg>
